# xmcd
#
# Track frame offsets:
#	187
#	28099
#	45352
#	77829
#	105154
#	132444
#	165669
#	193952
#	215229
#	247277
#
# Disc length: 3610 seconds
#
# Revision: 1
# Processed by: cddbd v1.5.1PL0 Copyright (c) Steve Scherf et al.
# Submitted via: CDex 1.50Beta5
#
DISCID=8e0e180a
DTITLE=さまざまなアーティスト - jazz guitarists who's who vol.2
DYEAR=1900
DGENRE=Jazz
TTITLE0=four on six
TTITLE1=consternation
TTITLE2=very early
TTITLE3=asking for the answer
TTITLE4=peace
TTITLE5=duku ellington's sound of love
TTITLE6=goodbye pork pie hat
TTITLE7=pig noze
TTITLE8=peking duck blues
TTITLE9=minor swing
EXTD=
EXTT0=
EXTT1=
EXTT2=
EXTT3=
EXTT4=
EXTT5=
EXTT6=
EXTT7=
EXTT8=
EXTT9=
PLAYORDER=
